{"title":"Machined [2006] - AKHiUgO","uid":5173238,"size":1084656657,"categoryP":"video","categoryS":"movies","magnet":"?xt=urn:btih:221458aae03052c66069700e889ada51d57f6973&amp;dn=Machined+%5B2006%5D+-+AKHiUgO&amp;tr=udp%3A%2F%2Ftracker.openbittorrent.com%3A80&amp;tr=udp%3A%2F%2Fopen.demonii.com%3A1337&amp;tr=udp%3A%2F%2Ftracker.coppersurfer.tk%3A6969&amp;tr=udp%3A%2F%2Fexodus.desync.com%3A6969","seeders":0,"leechers":1,"uploader":"akhiugo","files":-1,"time":1258814812,"description":"Unsure of the original source of this. It's an old silver that's been lying around here for years. Picture quality is not bad. What you see in this rip is exactly the same quality as what's on the disc as the original was just over 1gb in size in .vob format. Seems there's no other complete rips of this going around just now so I decided to rip it to XviD. Check the sample included which is in DivX format, same quality.\n &lt;a href=&quot;\nhttp://www.imdb.com/title/tt0436548/&quot; rel=&quot;nofollow&quot; target=&quot;_NEW&quot;&gt;\nhttp://www.imdb.com/title/tt0436548/&lt;/a&gt;\n\n\nCollectors have been known to go to extreme lengths to get what they want. For Motor Man Dan, the ultimate would be to have his very own serial killer, to fulfill his sick, obsessive, murderous appetite. Ryan, the victim of a terrible accident who suffered severe head trauma, would be that missing piece to complete Motor Man's demented collection. Motor Man would then tool and manufacture a half machine, half man, serial killer, which he would then orchestrate and produce an assortment of killing scenarios. From director Craig McMahon comes this gruesome/slasher tale of a desolate man that took collecting serious..\n\n\n\nGeneral\nFormat                           : AVI\nFile size                        : 1 022 MiB\nDuration                         : 1h 32mn\nOverall bit rate                 : 1 549 Kbps\nWriting application              : VirtualDubMod 1.5.4.1 (build 2178/release)\nWriting library                  : VirtualDubMod build 2178/release\n\nVideo\nFormat                           : MPEG-4 Visual\nFormat settings, Matrix          : Default\nCodec ID                         : XVID\nDuration                         : 1h 32mn\nBit rate                         : 1 318 Kbps\nWidth                            : 720 pixels\nHeight                           : 400 pixels\nDisplay aspect ratio             : 16/9\nFrame rate                       : 25.000 fps\nResolution                       : 24 bits\nColorimetry                      : 4:2:0\nScan type                        : Progressive\nBits/(Pixel*Frame)               : 0.183\nStream size                      : 869 MiB (85%)\nWriting library                  : XviD 1.1.2 (UTC 2006-11-01)\n\nAudio\nFormat                           : AC-3\nCodec ID                         : 2000\nDuration                         : 1h 32mn\nBit rate mode                    : Constant\nBit rate                         : 224 Kbps\nChannel(s)                       : 2 channels\nChannel positions                : L R\nSampling rate                    : 48.0 KHz\nStream size                      : 148 MiB (14%)\n &lt;a href=&quot;\nhttp://img4.imageshack.us/img4/237/vlcsnap2009112112h52m09.png&quot; rel=&quot;nofollow&quot; target=&quot;_NEW&quot;&gt;\nhttp://img4.imageshack.us/img4/237/vlcsnap2009112112h52m09.png&lt;/a&gt;\n &lt;a href=&quot;\nhttp://img34.imageshack.us/img34/166/vlcsnap2009112112h52m30.png&quot; rel=&quot;nofollow&quot; target=&quot;_NEW&quot;&gt;\nhttp://img34.imageshack.us/img34/166/vlcsnap2009112112h52m30.png&lt;/a&gt;\n\n\n\n\n\nPlease help your fellow pirates by seeding after download!","torrent":{"xt":"urn:btih:221458aae03052c66069700e889ada51d57f6973","amp;dn":"Machined+%5B2006%5D+-+AKHiUgO","amp;tr":["udp%3A%2F%2Ftracker.openbittorrent.com%3A80","udp%3A%2F%2Fopen.demonii.com%3A1337","udp%3A%2F%2Ftracker.coppersurfer.tk%3A6969","udp%3A%2F%2Fexodus.desync.com%3A6969"],"infoHash":"221458aae03052c66069700e889ada51d57f6973","infoHashBuffer":{"type":"Buffer","data":[34,20,88,170,224,48,82,198,96,105,112,14,136,154,218,81,213,127,105,115]},"announce":[],"urlList":[]}}